<?xml version="1.0"?>
<svg xmlns="http://www.w3.org/2000/svg" xmlns:xlink="http://www.w3.org/1999/xlink" xmlns:svgjs="http://svgjs.com/svgjs" version="1.1" width="512" height="512" x="0" y="0" viewBox="0 0 512 512" style="enable-background:new 0 0 512 512" xml:space="preserve" class=""><g transform="matrix(1,0,0,1,0,0)"><linearGradient xmlns="http://www.w3.org/2000/svg" id="a" gradientUnits="userSpaceOnUse" x1="70.21" x2="568.837" y1="577.79" y2="79.163" data-name="New Gradient Swatch 1"><stop stop-opacity="1" stop-color="#9932f4" offset="0"/><stop stop-opacity="1" stop-color="#003f8a" offset="0"/><stop stop-opacity="1" stop-color="#496cfe" offset="0"/><stop stop-opacity="1" stop-color="#9932f5" offset="0.9922779922779923"/></linearGradient><linearGradient xmlns="http://www.w3.org/2000/svg" xmlns:xlink="http://www.w3.org/1999/xlink" id="b" x1="94.21" x2="592.837" xlink:href="#a" y1="601.79" y2="103.163"/><linearGradient xmlns="http://www.w3.org/2000/svg" xmlns:xlink="http://www.w3.org/1999/xlink" id="c" x1="22.21" x2="520.837" xlink:href="#a" y1="529.79" y2="31.163"/><linearGradient xmlns="http://www.w3.org/2000/svg" xmlns:xlink="http://www.w3.org/1999/xlink" id="d" x1="-65.79" x2="432.837" xlink:href="#a" y1="441.79" y2="-56.837"/><linearGradient xmlns="http://www.w3.org/2000/svg" xmlns:xlink="http://www.w3.org/1999/xlink" id="e" x1="-109.79" x2="388.837" xlink:href="#a" y1="397.79" y2="-100.837"/><linearGradient xmlns="http://www.w3.org/2000/svg" xmlns:xlink="http://www.w3.org/1999/xlink" id="g" x1="-21.79" x2="476.837" xlink:href="#a" y1="485.79" y2="-12.837"/><linearGradient xmlns="http://www.w3.org/2000/svg" xmlns:xlink="http://www.w3.org/1999/xlink" id="h" x1="66.21" x2="564.837" xlink:href="#a" y1="573.79" y2="75.163"/><linearGradient xmlns="http://www.w3.org/2000/svg" xmlns:xlink="http://www.w3.org/1999/xlink" id="i" x1="110.21" x2="608.837" xlink:href="#a" y1="617.79" y2="119.163"/><linearGradient xmlns="http://www.w3.org/2000/svg" xmlns:xlink="http://www.w3.org/1999/xlink" id="j" x1="154.21" x2="652.837" xlink:href="#a" y1="661.79" y2="163.163"/><linearGradient xmlns="http://www.w3.org/2000/svg" xmlns:xlink="http://www.w3.org/1999/xlink" id="k" x1="36.21" x2="534.837" xlink:href="#a" y1="543.79" y2="45.163"/><g xmlns="http://www.w3.org/2000/svg"><path d="m232 400a8 8 0 0 0 -8 8v16a8 8 0 0 0 16 0v-16a8 8 0 0 0 -8-8z" fill="url(#a)" data-original="url(#a)" style=""/><path d="m280 400a8 8 0 0 0 -8 8v16a8 8 0 0 0 16 0v-16a8 8 0 0 0 -8-8z" fill="url(#b)" data-original="url(#b)" style=""/><path d="m168 336h176a8 8 0 0 0 8-8v-64a8 8 0 0 0 -8-8h-176a8 8 0 0 0 -8 8v64a8 8 0 0 0 8 8zm8-64h160v48h-160z" fill="url(#c)" data-original="url(#c)" style=""/><path d="m168 160h176a8 8 0 0 0 8-8v-64a8 8 0 0 0 -8-8h-176a8 8 0 0 0 -8 8v64a8 8 0 0 0 8 8zm8-64h160v48h-160z" fill="url(#d)" data-original="url(#d)" style=""/><path d="m120 168h-80a8 8 0 0 0 -8 8v64a8 8 0 0 0 8 8h80a8 8 0 0 0 8-8v-64a8 8 0 0 0 -8-8zm-8 64h-64v-48h64z" fill="url(#e)" data-original="url(#e)" style="" class=""/><path d="m120 256h-80a8 8 0 0 0 -8 8v64a8 8 0 0 0 8 8h80a8 8 0 0 0 8-8v-64a8 8 0 0 0 -8-8zm-8 64h-64v-48h64z" fill="url(#d)" data-original="url(#d)" style=""/><path d="m120 344h-80a8 8 0 0 0 -8 8v64a8 8 0 0 0 8 8h80a8 8 0 0 0 8-8v-64a8 8 0 0 0 -8-8zm-8 64h-64v-48h64z" fill="url(#g)" data-original="url(#g)" style="" class=""/><path d="m392 248h80a8 8 0 0 0 8-8v-64a8 8 0 0 0 -8-8h-80a8 8 0 0 0 -8 8v64a8 8 0 0 0 8 8zm8-64h64v48h-64z" fill="url(#h)" data-original="url(#h)" style=""/><path d="m392 336h80a8 8 0 0 0 8-8v-64a8 8 0 0 0 -8-8h-80a8 8 0 0 0 -8 8v64a8 8 0 0 0 8 8zm8-64h64v48h-64z" fill="url(#i)" data-original="url(#i)" style=""/><path d="m392 424h80a8 8 0 0 0 8-8v-64a8 8 0 0 0 -8-8h-80a8 8 0 0 0 -8 8v64a8 8 0 0 0 8 8zm8-64h64v48h-64z" fill="url(#j)" data-original="url(#j)" style=""/><path d="m496 144h-120v-80a8 8 0 0 0 -8-8h-16v-40a8 8 0 0 0 -8-8h-176a8 8 0 0 0 -8 8v40h-16a8 8 0 0 0 -8 8v80h-120a8 8 0 0 0 -8 8v344a8 8 0 0 0 8 8h480a8 8 0 0 0 8-8v-344a8 8 0 0 0 -8-8zm-360 344h-112v-328h112zm40-464h160v32h-160zm152 464h-144v-8h144zm-128-24v-104h48v104zm64 0v-104h48v104zm96 24h-16v-16a8 8 0 0 0 -8-8h-8v-112a8 8 0 0 0 -8-8h-128a8 8 0 0 0 -8 8v112h-8a8 8 0 0 0 -8 8v16h-16v-416h208zm128 0h-112v-328h112z" fill="url(#k)" data-original="url(#k)" style="" class=""/><path d="m344 168h-176a8 8 0 0 0 -8 8v64a8 8 0 0 0 8 8h176a8 8 0 0 0 8-8v-64a8 8 0 0 0 -8-8zm-8 64h-160v-48h160z" fill="url(#g)" data-original="url(#g)" style="" class=""/></g></g></svg>
